<svg width="64" height="64" viewBox="0 0 64 64" fill="none" xmlns="http://www.w3.org/2000/svg">
  <circle cx="32" cy="24" r="10" fill="#FDB462" stroke="#F57C00" stroke-width="2"/>
  <path d="M32 4v4m0 32v4m28-20h-4M8 24h-4m22.6-11.4l-2.8 2.8M40.2 40.2l-2.8-2.8m0-23.8l2.8 2.8M20.8 40.2l2.8-2.8" stroke="#F57C00" stroke-width="2" stroke-linecap="round"/>
  <path d="M16 40c-4.4 0-8 3.6-8 8s3.6 8 8 8h24c6.6 0 12-5.4 12-12s-5.4-12-12-12c-1.3 0-2.6.2-3.8.6-1.4-4.4-5.4-7.6-10.2-7.6-5.9 0-10.7 4.8-10.7 10.7 0 .4 0 .8.1 1.2C13.8 37.6 12 38.7 12 40.3" fill="#B3E5FC" stroke="#0277BD" stroke-width="2"/>
</svg> 